<svg width="24" height="24" viewBox="0 0 24 24" fill="none" xmlns="http://www.w3.org/2000/svg">
<mask id="mask0_1_10510" style="mask-type:luminance" maskUnits="userSpaceOnUse" x="0" y="0" width="24" height="24">
<path d="M0 0H24V24H0V0Z" fill="white"/>
</mask>
<g mask="url(#mask0_1_10510)">
<path d="M20.0024 10.0002V7.33294C20.0024 5.86058 18.8088 4.66692 17.3364 4.66692H17.3357V10.0002H20.0024Z" stroke="black" stroke-width="2" stroke-miterlimit="10" stroke-linecap="round" stroke-linejoin="round"/>
<path d="M17.3309 4.66657C17.3309 3.19392 16.137 1.99989 14.6643 1.99989H9.33095C7.85821 1.99989 6.66431 3.19392 6.66431 4.66657V19.3333H17.3309V4.66657Z" stroke="black" stroke-width="2" stroke-miterlimit="10" stroke-linecap="round" stroke-linejoin="round"/>
<path d="M9.32812 8.66675H14.6614V4.66675H9.32812V8.66675Z" stroke="black" stroke-width="2" stroke-miterlimit="10" stroke-linecap="round" stroke-linejoin="round"/>
<path d="M20 22C20 21.2927 19.719 20.6147 19.219 20.1144C18.7189 19.6143 18.0406 19.3333 17.3333 19.3333H6.66668C5.95946 19.3333 5.28116 19.6143 4.78108 20.1144C4.28095 20.6147 4 21.2927 4 22H20Z" stroke="black" stroke-width="2" stroke-miterlimit="10" stroke-linecap="round" stroke-linejoin="round"/>
<path d="M12 11.3331C12 11.3331 10 12.9998 10 14.6665C10 15.7705 10.8961 16.6665 12 16.6665C13.1039 16.6665 14 15.7705 14 14.6665C14 12.9998 12 11.3331 12 11.3331Z" stroke="black" stroke-width="2" stroke-miterlimit="10" stroke-linecap="round" stroke-linejoin="round"/>
<path d="M17.3357 15.3332C17.3357 16.0695 17.9327 16.6665 18.669 16.6665C19.4054 16.6665 20.0024 16.0695 20.0024 15.3332V9.99982" stroke="black" stroke-width="2" stroke-miterlimit="10" stroke-linecap="round" stroke-linejoin="round"/>
<path d="M2 22H22" stroke="black" stroke-width="2" stroke-miterlimit="10" stroke-linecap="round" stroke-linejoin="round"/>
</g>
</svg>
