<svg width="1920" height="294" viewBox="0 0 1920 294" fill="none" xmlns="http://www.w3.org/2000/svg">
<rect x="312" y="60" width="1296" height="174" rx="40" fill="#FAFAFA"/>
<g clip-path="url(#clip0_1_10343)">
<path d="M393.004 120.373C370.571 120.373 352.383 132.294 352.383 146.994C352.383 161.701 370.571 173.627 393.004 173.627C415.436 173.627 433.625 161.706 433.625 146.994C433.625 132.283 415.436 120.373 393.004 120.373ZM393.004 162.198C389.667 162.198 386.945 155.54 386.774 147.162C388.781 147.341 390.868 147.438 393.004 147.438C395.139 147.438 397.227 147.341 399.234 147.162C399.063 155.535 396.34 162.198 393.004 162.198ZM387.185 140.509C388.092 134.587 390.356 130.384 393.004 130.384C395.652 130.384 397.915 134.587 398.823 140.509C396.96 140.677 395.016 140.769 393.004 140.769C390.991 140.769 389.048 140.677 387.185 140.509ZM393.004 124.224C388.648 124.224 384.932 130.833 383.56 140.061C375.301 138.757 369.536 135.782 369.536 132.326C369.536 127.664 380.042 123.883 393.004 123.883C405.966 123.883 416.472 127.664 416.472 132.326C416.472 135.782 410.706 138.757 402.448 140.061C401.076 130.833 397.36 124.224 393.004 124.224ZM358.207 145.999C358.207 141.488 359.921 137.253 362.905 133.619C362.873 133.873 362.852 134.133 362.852 134.392C362.852 140.077 371.265 144.923 383.005 146.708C382.994 147.119 382.994 147.535 382.994 147.952C382.994 158.547 385.925 167.52 389.977 170.565C372.173 169.478 358.207 158.893 358.207 145.999ZM396.031 170.565C400.083 167.52 403.014 158.547 403.014 147.952C403.014 147.53 403.008 147.119 403.003 146.708C414.737 144.923 423.156 140.082 423.156 134.392C423.156 134.133 423.135 133.873 423.102 133.619C426.087 137.264 427.8 141.488 427.8 145.999C427.8 158.893 413.835 169.478 396.031 170.565Z" fill="black"/>
</g>
<path d="M664.467 156.065C664.493 156.229 664.708 156.385 664.915 156.46C664.992 156.485 665.029 156.536 664.949 156.71C664.357 157.981 663.812 158.714 663.069 159.819C662.386 160.839 661.616 161.635 660.684 162.401C659.278 163.566 657.326 164.833 655.713 163.981C654.996 163.609 654.686 162.604 654.699 161.792C654.733 159.506 655.75 157.159 657.626 154.853C659.913 152.034 662.441 150.573 664.101 151.372C665.818 152.191 665.27 154.181 664.501 155.742C664.441 155.863 664.441 155.965 664.467 156.064M682.891 138.254C683.014 138.036 682.884 137.876 682.609 137.876C681.175 137.876 679.293 137.88 677.799 137.88C677.443 137.88 677.26 137.922 677.092 138.255C676.54 139.312 669.819 149.393 668.568 151.351C668.357 151.649 668.1 151.608 668.07 151.266C667.943 150.103 666.94 148.766 665.359 148.127C664.155 147.638 662.977 147.549 661.752 147.712C659.542 148.009 657.572 149.176 655.841 150.493C653.231 152.478 650.98 155.052 648.073 156.953C646.487 157.988 644.314 158.891 642.86 157.544C641.544 156.323 641.693 153.611 643.706 151.514C643.918 151.294 644.173 151.479 644.133 151.674C643.943 152.623 644.175 153.566 644.895 154.228C645.773 155.016 647.031 155.105 648.106 154.579C649.376 153.949 650.122 152.733 650.339 151.354C650.676 149.213 649.03 147.326 646.97 147.174C645.296 147.057 643.692 147.639 642.128 148.931C641.344 149.582 640.899 150.063 640.221 151.028C640.056 151.265 639.802 151.289 639.81 150.938C639.886 148.198 638.755 146.656 636.492 146.606C634.735 146.563 632.858 147.518 631.395 148.685C629.791 149.974 628.388 151.683 626.885 153.288C626.698 153.486 626.535 153.476 626.482 153.093C626.44 151.277 625.981 149.519 625.141 148.27C624.844 147.835 624.219 147.621 623.694 147.914C623.451 148.047 622.607 148.435 621.993 148.93C621.688 149.182 621.569 149.546 621.704 150.012C622.514 152.724 622.336 155.808 621.237 158.413C620.227 160.799 618.265 162.95 615.958 163.679C614.439 164.161 612.86 163.925 611.882 162.577C610.54 160.716 611.082 157.48 613.083 154.794C614.849 152.428 617.403 150.925 619.951 149.957C620.25 149.842 620.312 149.649 620.227 149.394C620.089 148.975 619.868 148.404 619.779 148.144C619.545 147.521 618.891 147.42 618.092 147.507C616.24 147.723 614.571 148.358 612.921 149.242C608.602 151.557 606.436 156.037 605.487 158.434C605.03 159.585 604.639 160.304 604.134 160.94C603.453 161.797 602.599 162.577 601.036 163.951C600.894 164.077 600.789 164.339 600.908 164.584C601.067 164.914 601.88 166.063 602.109 166.166C602.364 166.291 602.659 166.115 602.778 166.031C603.871 165.289 605.18 164.113 605.82 163.315C606.045 163.042 606.275 163.157 606.395 163.572C606.992 165.706 608.557 167.448 610.721 168.177C614.681 169.513 618.789 167.578 621.89 164.21C623.86 162.069 624.571 160.692 625.327 159.756C626.607 158.169 629.132 154.618 632.139 152.338C633.242 151.497 634.548 150.856 635.204 151.281C635.731 151.623 635.901 152.417 635.056 153.955C631.989 159.56 627.478 166.144 626.65 167.741C626.499 168.018 626.633 168.236 626.921 168.236C628.526 168.228 630.116 168.232 631.573 168.232C631.815 168.223 631.924 168.109 632.045 167.938C634.399 164.251 636.613 160.742 638.987 157.114C639.12 156.901 639.242 157.063 639.247 157.157C639.298 157.999 639.503 159.15 640.002 159.906C640.9 161.303 642.171 161.904 643.581 161.913C644.704 161.93 645.271 161.756 646.481 161.303C647.466 160.938 648.256 160.458 648.863 160.024C649.217 159.777 649.279 160.19 649.271 160.253C648.726 163.18 649.398 166.648 652.305 168.086C655.783 169.802 659.604 167.39 661.803 165.212C662.018 165.002 662.249 165.024 662.271 165.477C662.322 166.308 662.693 167.295 663.38 167.985C665.223 169.836 668.941 169.103 672.672 166.212C675.067 164.362 677.574 161.747 679.838 158.978C679.923 158.871 679.984 158.699 679.821 158.524C679.476 158.163 678.978 157.75 678.636 157.432C678.48 157.299 678.251 157.337 678.12 157.436C675.799 159.645 673.71 162.165 670.69 164.248C669.672 164.959 668.049 165.533 667.32 164.545C667.036 164.162 667.068 163.632 667.346 162.936C668.226 160.739 682.164 139.5 682.887 138.248" fill="black"/>
<path d="M617.315 140.817C617.375 141.132 617.497 141.193 617.64 141.167C618.35 141.025 619.127 140.44 619.587 139.763C620.006 139.148 620.203 138.262 619.786 137.907C619.415 137.587 618.811 137.678 618.363 138.074C617.471 138.863 617.2 139.982 617.315 140.817M581.791 168.156C576.594 168.19 572.015 164.978 571.49 159.414C571.198 156.33 572.069 153.582 573.812 151.318C575.359 149.301 577.977 147.625 580.193 147.215C580.914 147.083 581.883 147.164 582.283 147.645C582.911 148.376 582.731 149.18 582.102 149.501C580.412 150.365 578.378 151.844 577.371 153.863C576.555 155.511 576.39 157.498 577.637 159.39C579.724 162.544 585.542 162.63 590.951 157.601C592.29 156.37 593.489 155.187 594.707 153.786C597.09 151.06 597.882 150.067 601.049 145.67C601.083 145.619 601.1 145.553 601.083 145.52C601.058 145.461 601.015 145.452 600.921 145.444C598.807 145.503 596.963 146.133 595.172 147.473C594.656 147.849 593.913 147.797 593.588 147.301C593.227 146.74 593.486 146.01 594.081 145.598C596.963 143.592 600.111 143.228 603.327 142.685C603.324 142.685 603.55 142.694 603.733 142.452C605.053 140.757 606.05 139.227 607.457 137.513C608.874 135.774 610.705 134.176 612.104 132.976C614.057 131.296 615.31 130.73 616.583 130.037C616.918 129.862 616.54 129.652 616.438 129.652C609.332 128.315 601.945 126.586 594.888 129.201C590 131.026 587.858 134.905 588.889 137.497C589.622 139.336 592.038 139.635 594.3 138.527C596.179 137.606 597.917 136.121 599.15 134.209C599.839 133.148 601.292 133.914 600.507 135.757C598.442 140.615 594.497 144.469 589.691 144.631C585.601 144.764 582.962 141.753 582.971 138.038C582.988 130.71 591.138 125.883 599.704 125.161C610.02 124.308 619.791 127.058 630.033 128.302C637.881 129.253 645.405 129.273 653.293 127.459C654.225 127.256 654.88 127.852 654.819 128.794C654.742 130.157 653.687 131.469 651.09 132.887C648.135 134.509 645.044 135.001 641.816 135.028C634.01 135.096 626.738 132.047 619.214 130.411C619.222 130.741 619.309 131.133 619.034 131.341C614.866 134.418 611.098 137.543 608.575 141.931C608.49 142.033 608.532 142.129 608.683 142.119C610.874 142.002 612.844 141.946 614.889 141.782C615.247 141.748 615.26 141.663 615.229 141.402C615.047 139.89 615.489 138.165 616.819 136.978C618.179 135.757 619.883 135.618 621.013 136.498C622.297 137.499 622.183 139.3 621.481 140.651C620.766 142.021 619.585 142.754 618.451 143.11C618.451 143.11 618.213 143.161 618.249 143.377C618.291 143.723 619.838 144.58 619.97 144.808C620.097 145.025 620.029 145.362 619.797 145.62C619.633 145.807 619.377 145.983 619.049 145.977C618.785 145.972 618.624 145.88 618.285 145.697C617.592 145.321 616.726 144.703 616.149 143.975C615.952 143.729 615.851 143.724 615.36 143.751C613.147 143.879 609.696 144.213 607.358 144.505C606.791 144.573 606.708 144.681 606.591 144.878C602.863 151.031 598.883 157.665 594.513 162.107C589.825 166.87 585.929 168.124 581.793 168.157" fill="black"/>
<path fill-rule="evenodd" clip-rule="evenodd" d="M859.025 124.259C867.343 128.554 873.025 137.117 873.025 146.987C873.025 156.858 867.343 165.448 859.025 169.716V166.782C862.206 164.913 864.897 162.299 866.855 159.205L859.025 156.084V151.335L867.615 157.925C869.409 154.67 870.415 150.962 870.415 146.986C870.415 138.61 865.848 131.247 859.025 127.192V124.259ZM846.928 121.351C851.277 121.351 855.382 122.391 859.025 124.259V127.193C855.681 125.218 851.766 124.045 847.634 123.912L850.624 144.907L859.025 151.336V156.085L846.873 151.256L834.802 156.111V151.389L843.257 144.906L846.22 123.911C842.033 124.045 838.146 125.218 834.802 127.192V124.259C838.418 122.391 842.55 121.351 846.928 121.351ZM859.025 169.716C855.382 171.583 851.277 172.65 846.928 172.65C842.551 172.65 838.419 171.583 834.803 169.743V166.782C838.337 168.888 842.496 170.089 846.928 170.089C851.332 170.089 855.464 168.888 859.025 166.782V169.716ZM834.803 169.743C826.457 165.448 820.775 156.858 820.775 146.987C820.775 137.117 826.457 128.554 834.803 124.259V127.193C827.952 131.248 823.385 138.584 823.385 146.987C823.385 150.962 824.418 154.724 826.212 157.978L834.803 151.389V156.111L827 159.258C828.958 162.327 831.622 164.914 834.803 166.782V169.743Z" fill="black"/>
<g clip-path="url(#clip1_1_10343)">
<path d="M1100.5 148.489C1100.42 153.384 1101.47 155.977 1105.5 155.977C1109.53 155.977 1110.1 151.56 1110.1 148.199C1110.1 144.836 1109.34 141.571 1105.11 141.571C1102.52 141.571 1100.6 143.589 1100.5 148.489ZM1092.35 168.945V135.809H1100.6C1100.6 135.809 1100.6 136.289 1100.6 137.153C1100.6 138.946 1101.33 138.207 1101.91 137.508C1102.01 137.391 1103.85 135.137 1107.99 135.137C1112.12 135.137 1118.54 138.018 1118.54 148.199C1118.54 156.075 1114.71 161.837 1108.09 161.837C1104.44 161.837 1102.33 160.399 1101.85 159.818C1101.37 159.246 1100.7 159.146 1100.7 159.818C1100.7 160.492 1100.7 168.945 1100.7 168.945H1092.35Z" fill="black"/>
<path d="M1028.55 125.055H1037.47C1037.47 125.055 1037.47 144.454 1037.47 148.489C1037.47 152.52 1035.75 160.974 1023.37 160.974C1011 160.974 1009.65 153.094 1009.65 148.68V144.358H1018.29C1018.29 144.358 1018.29 145.991 1018.29 148.582C1018.29 151.175 1020.02 153.575 1023.28 153.575C1026.54 153.575 1028.55 151.751 1028.55 148.68C1028.55 145.606 1028.55 125.055 1028.55 125.055Z" fill="black"/>
<path d="M1056.13 144.934C1056.13 142.531 1054.79 140.226 1051.72 140.226C1048.74 140.226 1047.69 142.337 1047.69 144.934H1056.13ZM1050.86 134.849C1057.87 134.849 1064 137.537 1064 149.927H1047.41C1047.41 153.865 1049.04 155.498 1051.91 155.498C1054.79 155.498 1055.75 153.191 1055.75 153.191H1063.91C1063.91 156.746 1059.02 161.548 1051.63 161.453C1043.19 161.453 1039.06 155.21 1039.06 148.774C1039.06 142.337 1042.7 134.849 1050.86 134.849Z" fill="black"/>
<path d="M1082.66 144.934C1082.66 142.531 1081.32 140.226 1078.25 140.226C1075.28 140.226 1074.22 142.337 1074.22 144.934H1082.66ZM1077.39 134.849C1084.4 134.849 1090.53 137.537 1090.53 149.927H1073.94C1073.94 153.865 1075.57 155.498 1078.45 155.498C1081.33 155.498 1082.29 153.191 1082.29 153.191H1090.44C1090.44 156.746 1085.55 161.548 1078.16 161.453C1069.72 161.453 1065.59 155.21 1065.59 148.774C1065.59 142.337 1069.24 134.849 1077.39 134.849Z" fill="black"/>
<path d="M1113.09 164.973C1113.09 163.66 1114.15 162.594 1115.47 162.594C1116.78 162.594 1117.84 163.66 1117.84 164.973C1117.84 166.283 1116.78 167.356 1115.47 167.356C1114.15 167.356 1113.09 166.283 1113.09 164.973ZM1112.81 164.973C1112.81 166.441 1114 167.633 1115.47 167.633C1116.93 167.633 1118.12 166.441 1118.12 164.973C1118.12 163.504 1116.93 162.313 1115.47 162.313C1114 162.313 1112.81 163.504 1112.81 164.973Z" fill="black"/>
<path d="M1116.53 166.333L1115.98 165.029C1116.16 164.968 1116.22 164.925 1116.31 164.826C1116.43 164.695 1116.51 164.49 1116.51 164.304C1116.51 163.833 1116.15 163.513 1115.62 163.513H1114.51V166.333H1114.84V165.112H1115.64L1116.17 166.333H1116.53ZM1114.83 164.826V163.82H1115.62C1115.94 163.82 1116.15 164.006 1116.15 164.295C1116.15 164.622 1115.93 164.826 1115.57 164.826H1114.83Z" fill="black"/>
</g>
<g clip-path="url(#clip2_1_10343)">
<path d="M1281.3 120C1266.11 120 1253.8 132.089 1253.8 147C1253.8 161.911 1266.11 174 1281.3 174C1296.49 174 1308.8 161.911 1308.8 147C1308.8 132.089 1296.49 120 1281.3 120ZM1281.3 121.755C1295.5 121.755 1307.01 133.057 1307.01 147C1307.01 160.941 1295.5 172.243 1281.3 172.243C1267.1 172.243 1255.59 160.941 1255.59 147C1255.59 133.059 1267.1 121.755 1281.3 121.755ZM1279.75 123.172C1278.99 123.204 1278.23 123.267 1277.47 123.348L1277.23 129.972C1277.77 129.882 1278.31 129.812 1278.85 129.76L1279.02 125.287L1278.99 124.979L1279.08 125.272L1280.61 128.622H1281.99L1283.52 125.274L1283.61 124.979L1283.58 125.287L1283.75 129.76C1284.28 129.81 1284.83 129.882 1285.37 129.972L1285.12 123.348C1284.37 123.264 1283.61 123.206 1282.85 123.172L1281.35 126.829L1281.3 127.099L1281.25 126.829L1279.75 123.172ZM1295.09 127.276L1291.56 132.74C1292 133.077 1292.59 133.574 1292.97 133.914L1296.3 132.217L1296.51 132.062L1296.35 132.274L1294.63 135.543C1295 135.937 1295.54 136.573 1295.84 136.961L1301.41 133.486C1301.07 133.053 1300.72 132.627 1300.36 132.208L1296.83 134.49L1296.59 134.697L1296.77 134.438L1298.33 131.387L1297.23 130.307L1294.12 131.837L1293.86 132.013L1294.06 131.774L1296.4 128.311C1295.99 127.97 1295.59 127.657 1295.09 127.276ZM1266.4 128.516C1265.58 128.6 1264.94 129.153 1263.21 131.047C1262.61 131.715 1262.03 132.401 1261.48 133.104L1266.23 137.53C1267.8 135.82 1268.44 135.185 1269.69 133.901C1270.56 132.989 1271.06 131.943 1270.18 130.937C1269.7 130.393 1268.9 130.273 1268.23 130.543L1268.17 130.566L1268.19 130.507C1268.27 130.209 1268.27 129.893 1268.17 129.599C1268.07 129.306 1267.88 129.047 1267.63 128.856C1267.46 128.723 1267.27 128.624 1267.05 128.566C1266.84 128.508 1266.62 128.49 1266.4 128.516ZM1266.42 129.9C1266.73 129.817 1267.05 130.035 1267.12 130.35C1267.2 130.665 1267 130.962 1266.77 131.209C1266.27 131.772 1264.41 133.68 1264.41 133.68L1263.49 132.818C1264.44 131.671 1265.46 130.627 1265.92 130.213C1266.06 130.071 1266.23 129.964 1266.42 129.9ZM1281.3 130.987C1277.26 130.985 1273.37 132.454 1270.37 135.109C1267.37 137.764 1265.49 141.417 1265.08 145.36V145.364C1264.82 147.866 1265.16 150.392 1266.08 152.739C1267 155.086 1268.47 157.187 1270.37 158.873C1272.27 160.559 1274.55 161.782 1277.02 162.444C1279.49 163.106 1282.08 163.188 1284.59 162.682C1288.27 161.94 1291.57 159.974 1293.94 157.117C1296.32 154.26 1297.61 150.686 1297.61 147C1297.6 142.755 1295.88 138.685 1292.83 135.684C1289.77 132.683 1285.62 130.995 1281.3 130.991V130.987ZM1268.61 131.531C1268.72 131.531 1268.83 131.561 1268.93 131.628C1269.13 131.761 1269.23 131.988 1269.17 132.213C1269.12 132.481 1268.89 132.733 1268.71 132.928L1266.31 135.449L1265.35 134.549C1265.35 134.549 1267.15 132.677 1267.74 132.076C1267.98 131.837 1268.13 131.693 1268.29 131.615C1268.39 131.564 1268.5 131.535 1268.61 131.531ZM1281.3 133.09C1283.16 133.088 1285 133.447 1286.72 134.145C1288.44 134.843 1290.01 135.868 1291.32 137.16C1292.64 138.452 1293.68 139.986 1294.39 141.675C1295.1 143.363 1295.47 145.173 1295.47 147H1281.3V160.91C1279.44 160.912 1277.6 160.553 1275.88 159.855C1274.16 159.157 1272.59 158.132 1271.28 156.84C1269.96 155.548 1268.92 154.014 1268.21 152.325C1267.5 150.637 1267.13 148.827 1267.13 147H1281.3V133.09Z" fill="black"/>
</g>
<path d="M1465.51 128.471C1460.53 128.633 1455.82 130.697 1452.39 134.219C1448.96 137.741 1447.08 142.439 1447.17 147.299C1447.25 152.159 1449.29 156.792 1452.84 160.201C1456.39 163.609 1461.16 165.519 1466.14 165.519C1471.12 165.519 1475.9 163.609 1479.45 160.201C1483 156.792 1485.04 152.159 1485.12 147.299C1485.2 142.439 1483.33 137.741 1479.9 134.219C1476.46 130.697 1471.75 128.633 1466.78 128.471H1465.51ZM1492.08 128.471C1487.11 128.633 1482.39 130.697 1478.96 134.219C1475.53 137.741 1473.66 142.439 1473.74 147.299C1473.82 152.159 1475.86 156.792 1479.41 160.201C1482.96 163.609 1487.74 165.519 1492.72 165.519C1497.69 165.519 1502.47 163.609 1506.02 160.201C1509.57 156.792 1511.61 152.159 1511.69 147.299C1511.78 142.439 1509.9 137.741 1506.47 134.219C1503.04 130.697 1498.32 128.633 1493.35 128.471H1492.08ZM1518.65 128.471C1513.68 128.633 1508.97 130.697 1505.53 134.219C1502.1 137.741 1500.23 142.439 1500.31 147.299C1500.39 152.159 1502.43 156.792 1505.98 160.201C1509.53 163.609 1514.31 165.519 1519.29 165.519C1524.27 165.519 1529.04 163.609 1532.59 160.201C1536.14 156.792 1538.18 152.159 1538.26 147.299C1538.35 142.439 1536.47 137.741 1533.04 134.219C1529.61 130.697 1524.9 128.633 1519.92 128.471H1518.65ZM1545.23 128.471C1540.25 128.633 1535.54 130.697 1532.11 134.219C1528.67 137.741 1526.8 142.439 1526.88 147.299C1526.96 152.159 1529 156.792 1532.55 160.201C1536.1 163.609 1540.88 165.519 1545.86 165.519C1550.84 165.519 1555.62 163.609 1559.17 160.201C1562.72 156.792 1564.75 152.159 1564.83 147.299C1564.92 142.439 1563.04 137.741 1559.61 134.219C1556.18 130.697 1551.47 128.633 1546.49 128.471H1545.23Z" stroke="black" stroke-width="2.88235"/>
<defs>
<clipPath id="clip0_1_10343">
<rect width="82" height="54" fill="white" transform="translate(352 120)"/>
</clipPath>
<clipPath id="clip1_1_10343">
<rect width="109" height="44" fill="white" transform="translate(1009.6 125)"/>
</clipPath>
<clipPath id="clip2_1_10343">
<rect width="55" height="54" fill="white" transform="translate(1253.8 120)"/>
</clipPath>
</defs>
</svg>
