<svg width="29" height="28" viewBox="0 0 29 28" fill="none" xmlns="http://www.w3.org/2000/svg">
<g clip-path="url(#clip0_1_10121)">
<path d="M28.3367 14.3178L27.6438 12.015C27.5452 11.6873 27.2535 11.4552 26.912 11.4328L20.7911 11.0315L20.0574 9.19687C19.4303 7.63068 17.9356 6.61873 16.2494 6.61873C9.57529 6.61873 10.0567 6.60101 9.88197 6.65526C9.67597 6.71892 9.50338 6.86367 9.40358 7.04763C9.31991 7.20146 9.38521 6.95363 8.57723 10.9936H1.32028C0.867266 10.9936 0.5 11.3608 0.5 11.8138V16.7355C0.5 18.0924 1.60393 19.1963 2.96084 19.1963H4.60664C4.96467 20.4572 6.12564 21.3838 7.49971 21.3838C8.87379 21.3838 10.0347 20.4572 10.3928 19.1963H18.6061C18.9641 20.4572 20.1251 21.3838 21.4992 21.3838C22.8732 21.3838 24.0341 20.4573 24.3922 19.1964C24.709 19.1965 24.8179 19.1968 24.8862 19.1942C27.3467 19.1112 29.0489 16.6838 28.3367 14.3178ZM18.5343 9.80639L19.0091 10.9936H13.9293L13.6559 8.25929H16.2494C17.2611 8.25935 18.158 8.86668 18.5343 9.80639ZM10.7971 8.25935H12.0071L12.2806 10.9936H10.2502L10.7971 8.25935ZM7.49971 19.7433C6.74588 19.7433 6.13258 19.13 6.13258 18.3761C6.13258 17.6223 6.74588 17.009 7.49971 17.009C8.25355 17.009 8.86685 17.6223 8.86685 18.3761C8.86685 19.13 8.25355 19.7433 7.49971 19.7433ZM21.4991 19.7433C20.7453 19.7433 20.132 19.13 20.132 18.3761C20.132 17.6223 20.7453 17.009 21.4991 17.009C22.253 17.009 22.8663 17.6223 22.8663 18.3761C22.8663 19.13 22.253 19.7433 21.4991 19.7433ZM24.8287 17.5547C24.7921 17.5559 24.7882 17.5558 24.3922 17.5559C24.0342 16.295 22.8732 15.3684 21.4991 15.3684C20.1251 15.3684 18.9642 16.295 18.6061 17.5558H10.3928C10.0348 16.295 8.87379 15.3684 7.49971 15.3684C6.12564 15.3684 4.96472 16.295 4.60664 17.5558H2.96084C2.50853 17.5558 2.14056 17.1879 2.14056 16.7356V15.6965H3.12489C3.57791 15.6965 3.94517 15.3293 3.94517 14.8763C3.94517 14.4232 3.57791 14.056 3.12489 14.056H2.14056V12.6342H12.3667V13.5638C12.3667 14.0168 12.734 14.3841 13.187 14.3841C13.64 14.3841 14.0073 14.0168 14.0073 13.5638V12.6342H20.1599L26.2368 13.0327L26.5447 14.056H25.9834C25.5304 14.056 25.1631 14.4232 25.1631 14.8763C25.1631 15.3293 25.5304 15.6965 25.9834 15.6965H26.8395C26.7082 16.6965 25.8896 17.5189 24.8287 17.5547Z" fill="black"/>
</g>
<defs>
<clipPath id="clip0_1_10121">
<rect width="28" height="28" fill="white" transform="translate(0.5)"/>
</clipPath>
</defs>
</svg>
