<svg width="174" height="50" viewBox="0 0 174 50" fill="none" xmlns="http://www.w3.org/2000/svg">
<path d="M166.744 50H6.48716C2.96312 50 0.0769043 47.1859 0.0769043 43.75V6.25C0.0769043 2.81406 2.96312 0 6.48716 0H166.744C170.268 0 173.154 2.81406 173.154 6.25V43.75C173.154 47.1859 170.268 50 166.744 50Z" fill="black"/>
<path d="M166.744 1.00156C169.712 1.00156 172.127 3.35625 172.127 6.25V43.75C172.127 46.6438 169.712 48.9984 166.744 48.9984H6.48716C3.51921 48.9984 1.10415 46.6438 1.10415 43.75V6.25C1.10415 3.35625 3.51921 1.00156 6.48716 1.00156H166.744ZM166.744 0H6.48716C2.96312 0 0.0769043 2.81406 0.0769043 6.25V43.75C0.0769043 47.1859 2.96312 50 6.48716 50H166.744C170.268 50 173.154 47.1859 173.154 43.75V6.25C173.154 2.81406 170.268 0 166.744 0Z" fill="#A6A6A6"/>
<path d="M13.4527 9.42336C13.0761 9.80774 12.8582 10.4062 12.8582 11.1812V38.8249C12.8582 39.5999 13.0761 40.1984 13.4527 40.5827L13.5457 40.6671L29.4335 25.1827V24.8171L13.5457 9.33274L13.4527 9.42336Z" fill="url(#paint0_linear_1_9326)"/>
<path d="M34.7263 30.3467L29.4363 25.1826V24.817L34.7328 19.6529L34.8513 19.7201L41.1238 23.1998C42.9138 24.1873 42.9138 25.8123 41.1238 26.8061L34.8513 30.2795L34.7263 30.3467Z" fill="url(#paint1_linear_1_9326)"/>
<path d="M34.8477 30.2796L29.4327 24.9999L13.4519 40.5827C14.0465 41.1921 15.016 41.2655 16.1186 40.6562L34.8477 30.2796Z" fill="url(#paint2_linear_1_9326)"/>
<path d="M34.8477 19.7203L16.1186 9.34376C15.016 8.74063 14.0465 8.81407 13.4519 9.42344L29.4327 25L34.8477 19.7203Z" fill="url(#paint3_linear_1_9326)"/>
<path d="M60.8682 12.8049C60.8682 13.8486 60.5477 14.6845 59.9162 15.308C59.1903 16.047 58.2448 16.4189 57.0861 16.4189C55.9787 16.4189 55.0332 16.0408 54.2576 15.2955C53.4803 14.5392 53.0925 13.6111 53.0925 12.5002C53.0925 11.3892 53.4803 10.4611 54.2576 9.71111C55.0332 8.95955 55.9787 8.58142 57.0861 8.58142C57.6374 8.58142 58.163 8.69236 58.6646 8.89861C59.1646 9.10642 59.5717 9.38767 59.8666 9.73455L59.1967 10.3939C58.6823 9.80173 57.982 9.50955 57.0861 9.50955C56.2784 9.50955 55.5781 9.78455 54.9836 10.3392C54.3954 10.8955 54.1005 11.6158 54.1005 12.5002C54.1005 13.3845 54.3954 14.1111 54.9836 14.6674C55.5781 15.2158 56.2784 15.497 57.0861 15.497C57.9435 15.497 58.6646 15.2158 59.2336 14.6611C59.6086 14.2939 59.8217 13.7877 59.8778 13.1408H57.0861V12.2377H60.8105C60.8554 12.433 60.8682 12.622 60.8682 12.8049Z" fill="white" stroke="white" stroke-width="0.16" stroke-miterlimit="10"/>
<path d="M66.7768 9.67361H63.2784V12.0486H66.4323V12.9517H63.2784V15.3267H66.7768V16.247H62.288V8.7533H66.7768V9.67361Z" fill="white" stroke="white" stroke-width="0.16" stroke-miterlimit="10"/>
<path d="M70.9475 16.2472H69.9571V9.67373H67.8113V8.75342H73.0949V9.67373H70.9475V16.2472Z" fill="white" stroke="white" stroke-width="0.16" stroke-miterlimit="10"/>
<path d="M76.9207 16.2472V8.75342H77.9094V16.2472H76.9207Z" fill="white" stroke="white" stroke-width="0.16" stroke-miterlimit="10"/>
<path d="M82.2912 16.2472H81.3089V9.67373H79.155V8.75342H84.4451V9.67373H82.2912V16.2472Z" fill="white" stroke="white" stroke-width="0.16" stroke-miterlimit="10"/>
<path d="M94.4447 15.2831C93.6867 16.0409 92.7476 16.419 91.6274 16.419C90.5008 16.419 89.5617 16.0409 88.8037 15.2831C88.0473 14.5269 87.6707 13.5987 87.6707 12.5003C87.6707 11.4019 88.0473 10.4737 88.8037 9.71748C89.5617 8.95967 90.5008 8.58154 91.6274 8.58154C92.7412 8.58154 93.6803 8.95967 94.4383 9.72373C95.2011 10.4862 95.5777 11.4081 95.5777 12.5003C95.5777 13.5987 95.2011 14.5269 94.4447 15.2831ZM89.536 14.655C90.1066 15.2159 90.8005 15.4972 91.6274 15.4972C92.4479 15.4972 93.1482 15.2159 93.7123 14.655C94.2812 14.094 94.5697 13.3737 94.5697 12.5003C94.5697 11.6269 94.2812 10.9065 93.7123 10.3456C93.1482 9.78467 92.4479 9.50342 91.6274 9.50342C90.8005 9.50342 90.1066 9.78467 89.536 10.3456C88.9671 10.9065 88.6787 11.6269 88.6787 12.5003C88.6787 13.3737 88.9671 14.094 89.536 14.655Z" fill="white" stroke="white" stroke-width="0.16" stroke-miterlimit="10"/>
<path d="M96.9675 16.2472V8.75342H98.1695L101.907 14.5815H101.95L101.907 13.1409V8.75342H102.895V16.2472H101.863L97.9499 10.1315H97.9066L97.9499 11.5784V16.2472H96.9675Z" fill="white" stroke="white" stroke-width="0.16" stroke-miterlimit="10"/>
<path d="M87.4313 27.1904C84.42 27.1904 81.9601 29.4248 81.9601 32.5076C81.9601 35.5654 84.42 37.8232 87.4313 37.8232C90.4489 37.8232 92.9088 35.5654 92.9088 32.5076C92.9088 29.4248 90.4489 27.1904 87.4313 27.1904ZM87.4313 35.7295C85.779 35.7295 84.3575 34.3998 84.3575 32.5076C84.3575 30.5904 85.779 29.2842 87.4313 29.2842C89.0835 29.2842 90.5114 30.5904 90.5114 32.5076C90.5114 34.3998 89.0835 35.7295 87.4313 35.7295ZM75.4938 27.1904C72.4761 27.1904 70.0226 29.4248 70.0226 32.5076C70.0226 35.5654 72.4761 37.8232 75.4938 37.8232C78.5098 37.8232 80.9649 35.5654 80.9649 32.5076C80.9649 29.4248 78.5098 27.1904 75.4938 27.1904ZM75.4938 35.7295C73.8399 35.7295 72.4136 34.3998 72.4136 32.5076C72.4136 30.5904 73.8399 29.2842 75.4938 29.2842C77.146 29.2842 78.5675 30.5904 78.5675 32.5076C78.5675 34.3998 77.146 35.7295 75.4938 35.7295ZM61.2886 28.8201V31.0795H66.8223C66.6604 32.342 66.2277 33.2701 65.5643 33.917C64.7566 34.6982 63.4986 35.5654 61.2886 35.5654C57.8832 35.5654 55.2165 32.8857 55.2165 29.5654C55.2165 26.2451 57.8832 23.5654 61.2886 23.5654C63.13 23.5654 64.4697 24.267 65.4585 25.1764L67.0915 23.5842C65.7085 22.2967 63.8688 21.3076 61.2886 21.3076C56.6188 21.3076 52.6941 25.0123 52.6941 29.5654C52.6941 34.1186 56.6188 37.8232 61.2886 37.8232C63.8127 37.8232 65.7085 37.017 67.1989 35.5045C68.7261 34.0154 69.2021 31.9217 69.2021 30.2311C69.2021 29.7061 69.1572 29.2232 69.0771 28.8201H61.2886ZM119.375 30.5717C118.925 29.3826 117.535 27.1904 114.705 27.1904C111.901 27.1904 109.566 29.3451 109.566 32.5076C109.566 35.4857 111.877 37.8232 114.975 37.8232C117.479 37.8232 118.925 36.3342 119.519 35.467L117.66 34.2592C117.04 35.1436 116.196 35.7295 114.975 35.7295C113.761 35.7295 112.891 35.1873 112.333 34.1186L119.627 31.1764L119.375 30.5717ZM111.939 32.342C111.877 30.292 113.572 29.242 114.787 29.242C115.739 29.242 116.547 29.7061 116.816 30.3701L111.939 32.342ZM106.011 37.4998H108.409V21.8748H106.011V37.4998ZM102.085 28.3748H102.005C101.467 27.7529 100.439 27.1904 99.138 27.1904C96.4072 27.1904 93.9104 29.5279 93.9104 32.5248C93.9104 35.5045 96.4072 37.8232 99.138 37.8232C100.439 37.8232 101.467 37.2561 102.005 36.6154H102.085V37.3779C102.085 39.4107 100.971 40.5029 99.1748 40.5029C97.7101 40.5029 96.8015 39.4717 96.4264 38.6045L94.3415 39.4529C94.9425 40.8623 96.5338 42.5967 99.1748 42.5967C101.986 42.5967 104.358 40.9842 104.358 37.0607V27.5139H102.085V28.3748ZM99.3431 35.7295C97.6909 35.7295 96.3079 34.3811 96.3079 32.5248C96.3079 30.6514 97.6909 29.2842 99.3431 29.2842C100.971 29.2842 102.255 30.6514 102.255 32.5248C102.255 34.3811 100.971 35.7295 99.3431 35.7295ZM130.6 21.8748H124.866V37.4998H127.257V31.5795H130.6C133.255 31.5795 135.859 29.7061 135.859 26.7264C135.859 23.7482 133.249 21.8748 130.6 21.8748ZM130.662 29.4061H127.257V24.0482H130.662C132.447 24.0482 133.467 25.4936 133.467 26.7264C133.467 27.9357 132.447 29.4061 130.662 29.4061ZM145.442 27.1607C143.715 27.1607 141.918 27.9045 141.18 29.5529L143.301 30.4201C143.758 29.5529 144.598 29.2717 145.486 29.2717C146.726 29.2717 147.984 29.9982 148.003 31.2811V31.4451C147.571 31.2014 146.644 30.8404 145.505 30.8404C143.22 30.8404 140.891 32.067 140.891 34.3561C140.891 36.4498 142.763 37.7982 144.867 37.7982C146.476 37.7982 147.364 37.0904 147.922 36.267H148.003V37.4748H150.313V31.4811C150.313 28.7107 148.191 27.1607 145.442 27.1607ZM145.154 35.7232C144.372 35.7232 143.282 35.3451 143.282 34.3998C143.282 33.1904 144.641 32.7264 145.817 32.7264C146.87 32.7264 147.364 32.9529 148.003 33.2514C147.816 34.6982 146.539 35.7232 145.154 35.7232ZM158.726 27.5029L155.978 34.2764H155.896L153.055 27.5029H150.476L154.745 36.9686L152.309 42.2357H154.808L161.386 27.5029H158.726ZM137.173 37.4998H139.571V21.8748H137.173V37.4998Z" fill="white"/>
<defs>
<linearGradient id="paint0_linear_1_9326" x1="28.0228" y1="39.1128" x2="7.05155" y2="17.6038" gradientUnits="userSpaceOnUse">
<stop stop-color="#00A0FF"/>
<stop offset="0.0066" stop-color="#00A1FF"/>
<stop offset="0.2601" stop-color="#00BEFF"/>
<stop offset="0.5122" stop-color="#00D2FF"/>
<stop offset="0.7604" stop-color="#00DFFF"/>
<stop offset="1" stop-color="#00E3FF"/>
</linearGradient>
<linearGradient id="paint1_linear_1_9326" x1="43.4547" y1="24.9981" x2="12.4331" y2="24.9981" gradientUnits="userSpaceOnUse">
<stop stop-color="#FFE000"/>
<stop offset="0.4087" stop-color="#FFBD00"/>
<stop offset="0.7754" stop-color="#FFA500"/>
<stop offset="1" stop-color="#FF9C00"/>
</linearGradient>
<linearGradient id="paint2_linear_1_9326" x1="31.9032" y1="22.1298" x2="3.46443" y2="-7.03817" gradientUnits="userSpaceOnUse">
<stop stop-color="#FF3A44"/>
<stop offset="1" stop-color="#C31162"/>
</linearGradient>
<linearGradient id="paint3_linear_1_9326" x1="9.42921" y1="49.7798" x2="22.1284" y2="36.7551" gradientUnits="userSpaceOnUse">
<stop stop-color="#32A071"/>
<stop offset="0.0685" stop-color="#2DA771"/>
<stop offset="0.4762" stop-color="#15CF74"/>
<stop offset="0.8009" stop-color="#06E775"/>
<stop offset="1" stop-color="#00F076"/>
</linearGradient>
</defs>
</svg>
