<svg width="380" height="380" viewBox="0 0 380 380" fill="none" xmlns="http://www.w3.org/2000/svg">
<path d="M366.83 205.007C364.158 175.015 359.757 169.174 358.094 166.977C354.272 161.901 348.156 158.583 341.684 155.102C341.318 154.909 341.002 154.633 340.761 154.296C340.52 153.96 340.361 153.572 340.295 153.163C340.23 152.754 340.26 152.336 340.384 151.941C340.508 151.546 340.722 151.185 341.009 150.887C342.207 149.671 343.129 148.211 343.709 146.605C344.289 145 344.515 143.288 344.371 141.587C344.092 138.571 342.689 135.77 340.442 133.739C338.194 131.709 335.265 130.597 332.236 130.625H320.658C320.162 130.628 319.666 130.66 319.174 130.721C318.836 130.575 318.486 130.458 318.127 130.373C311.27 115.878 301.881 96.0316 282.421 86.3461C253.557 71.9922 200.387 71.25 189.996 71.25C179.605 71.25 126.435 71.9922 97.6086 86.3238C78.1484 96.0094 68.7597 115.855 61.9019 130.35L61.8426 130.469C61.5005 130.517 61.1646 130.602 60.8406 130.721C60.3481 130.66 59.8525 130.628 59.3562 130.625H47.7558C44.7269 130.597 41.7981 131.709 39.5504 133.739C37.3027 135.77 35.9002 138.571 35.6211 141.587C35.4892 143.284 35.7254 144.99 36.3133 146.587C36.9013 148.184 37.8272 149.636 39.0277 150.842C39.3149 151.14 39.5289 151.501 39.6528 151.896C39.7767 152.291 39.8071 152.71 39.7416 153.118C39.6761 153.527 39.5165 153.915 39.2754 154.252C39.0343 154.588 38.7183 154.864 38.3523 155.058C31.8804 158.561 25.7351 161.879 21.9426 166.933C20.2801 169.159 15.8863 174.971 13.207 204.963C11.7226 221.84 11.5 239.311 12.6652 250.562C15.107 273.941 19.6863 288.073 19.8793 288.659C20.582 290.793 21.8755 292.683 23.6096 294.111C25.3437 295.539 27.4473 296.446 29.6761 296.727V296.875C29.6761 300.024 30.9273 303.045 33.1543 305.272C35.3813 307.499 38.4017 308.75 41.5511 308.75H83.1136C86.2631 308.75 89.2835 307.499 91.5105 305.272C93.7375 303.045 94.9886 300.024 94.9886 296.875C101.379 296.875 105.825 295.732 110.537 294.515C117.342 292.681 124.297 291.462 131.319 290.871C153.963 288.711 176.481 287.969 189.996 287.969C203.237 287.969 226.749 288.711 249.43 290.871C256.48 291.463 263.463 292.688 270.293 294.53C274.806 295.688 279.088 296.756 285.018 296.868C285.018 300.017 286.269 303.037 288.496 305.264C290.723 307.491 293.744 308.743 296.893 308.743H338.456C341.605 308.743 344.626 307.491 346.853 305.264C349.08 303.037 350.331 300.017 350.331 296.868V296.779C352.565 296.503 354.675 295.599 356.415 294.171C358.155 292.742 359.453 290.849 360.157 288.711C360.35 288.125 364.93 273.993 367.371 250.614C368.537 239.355 368.329 221.914 366.83 205.007ZM83.366 140.504C89.3035 127.886 96.0945 113.607 108.185 107.588C125.656 98.8891 161.867 94.9703 189.996 94.9703C218.125 94.9703 254.336 98.8594 271.807 107.588C283.898 113.607 290.659 127.894 296.626 140.504L297.368 142.114C297.802 143.031 297.994 144.044 297.926 145.056C297.857 146.068 297.53 147.046 296.977 147.895C296.423 148.745 295.661 149.439 294.763 149.911C293.864 150.383 292.861 150.616 291.846 150.59C267.184 149.922 215.23 147.784 189.996 147.784C164.762 147.784 112.809 149.974 88.1086 150.642C87.0945 150.668 86.0906 150.435 85.1925 149.963C84.2944 149.491 83.5322 148.797 82.9785 147.947C82.4247 147.097 82.098 146.12 82.0294 145.108C81.9608 144.096 82.1527 143.083 82.5867 142.166C82.8465 141.617 83.1211 141.06 83.366 140.504ZM92.2203 199.604C79.4532 201.141 66.6045 201.899 53.7453 201.875C45.8781 201.875 37.766 199.648 36.2593 192.642C35.2277 187.929 35.339 185.28 35.8957 182.615C36.3633 180.352 37.1054 178.704 40.8164 178.125C50.4648 176.641 55.8605 178.504 71.6543 183.157C82.1265 186.237 89.682 190.341 93.9867 193.592C96.1465 195.195 94.9961 199.381 92.2203 199.604ZM256.526 260.463C246.759 261.577 227.224 261.168 190.219 261.168C153.213 261.168 133.686 261.577 123.919 260.463C113.84 259.343 100.993 249.813 109.766 241.322C115.607 235.726 129.233 231.54 147.38 229.187C165.526 226.835 173.208 225.625 190.145 225.625C207.081 225.625 213.984 226.367 232.909 229.195C251.835 232.023 266.137 236.261 270.523 241.33C278.524 250.414 266.597 259.283 256.526 260.508V260.463ZM343.733 192.635C342.248 199.671 334.084 201.868 326.247 201.868C313.142 201.871 300.047 201.112 287.03 199.596C284.759 199.381 283.705 195.396 286.005 193.585C290.243 190.252 297.88 186.23 308.338 183.15C324.132 178.496 333.238 176.633 341.061 178.184C342.968 178.563 343.978 180.611 344.096 181.895C344.62 185.47 344.497 189.111 343.733 192.642V192.635Z" fill="black" fill-opacity="0.2"/>
</svg>
